<svg xmlns="http://www.w3.org/2000/svg" xmlns:xlink="http://www.w3.org/1999/xlink" width="500" zoomAndPan="magnify" viewBox="0 0 375 374.999991" height="500" preserveAspectRatio="xMidYMid meet" version="1.0"><defs><clipPath id="f5863fce95"><path d="M 40 39 L 263 39 L 263 260 L 40 260 Z M 40 39 " clip-rule="nonzero"/></clipPath><clipPath id="6ed91a5d42"><path d="M 230.320312 -16.316406 L 334.496094 335.328125 L 144.652344 391.570312 L 40.476562 39.925781 Z M 230.320312 -16.316406 " clip-rule="nonzero"/></clipPath><clipPath id="6d60b5b099"><path d="M 230.320312 -16.316406 L 334.496094 335.328125 L 144.652344 391.570312 L 40.476562 39.925781 Z M 230.320312 -16.316406 " clip-rule="nonzero"/></clipPath><clipPath id="071ea973ef"><path d="M 112 115 L 335 115 L 335 336 L 112 336 Z M 112 115 " clip-rule="nonzero"/></clipPath><clipPath id="7a77c9b78e"><path d="M 230.320312 -16.316406 L 334.496094 335.328125 L 144.652344 391.570312 L 40.476562 39.925781 Z M 230.320312 -16.316406 " clip-rule="nonzero"/></clipPath><clipPath id="35b0efb775"><path d="M 230.320312 -16.316406 L 334.496094 335.328125 L 144.652344 391.570312 L 40.476562 39.925781 Z M 230.320312 -16.316406 " clip-rule="nonzero"/></clipPath></defs><g clip-path="url(#f5863fce95)"><g clip-path="url(#6ed91a5d42)"><g clip-path="url(#6d60b5b099)"><path fill="#ff007f" d="M 105.488281 259.042969 L 40.566406 39.898438 L 262.78125 93.257812 Z M 105.488281 259.042969 " fill-opacity="1" fill-rule="nonzero"/></g></g></g><g clip-path="url(#071ea973ef)"><g clip-path="url(#7a77c9b78e)"><g clip-path="url(#35b0efb775)"><path fill="#a30051" d="M 269.503906 115.945312 L 334.425781 335.089844 L 112.210938 281.734375 Z M 269.503906 115.945312 " fill-opacity="1" fill-rule="nonzero"/></g></g></g></svg>